<svg width="1200" height="900" viewBox="0 0 1200 900" fill="none" xmlns="http://www.w3.org/2000/svg">
  <rect width="1200" height="900" rx="48" fill="#F5FBF9"/>
  <circle cx="975" cy="200" r="164" fill="#D7F4EE"/>
  <circle cx="248" cy="650" r="188" fill="#FFE5B1"/>
  <rect x="246" y="190" width="708" height="448" rx="36" fill="#08111F"/>
  <rect x="304" y="250" width="260" height="24" rx="12" fill="#4CC5AD"/>
  <rect x="304" y="304" width="442" height="18" rx="9" fill="#D2E5E0"/>
  <rect x="304" y="342" width="384" height="18" rx="9" fill="#D2E5E0"/>
  <rect x="304" y="410" width="160" height="160" rx="28" fill="#15263D"/>
  <circle cx="384" cy="490" r="46" fill="#4CC5AD"/>
  <rect x="506" y="420" width="324" height="18" rx="9" fill="#FFFFFF" fill-opacity="0.85"/>
  <rect x="506" y="456" width="246" height="18" rx="9" fill="#FFFFFF" fill-opacity="0.65"/>
  <rect x="506" y="506" width="192" height="56" rx="28" fill="#1FA58D"/>
  <rect x="506" y="506" width="192" height="56" rx="28" fill="#1FA58D"/>
  <path d="M846 428C869.196 428 888 447.791 888 472.2C888 497.4 869.196 517.2 846 517.2C822.804 517.2 804 497.4 804 472.2C804 447.791 822.804 428 846 428Z" fill="#FF8A6F"/>
  <path d="M846 448V497" stroke="white" stroke-width="16" stroke-linecap="round"/>
  <path d="M822 472H870" stroke="white" stroke-width="16" stroke-linecap="round"/>
</svg>
